<?xml version="1.0" standalone="no"?><!DOCTYPE svg PUBLIC "-//W3C//DTD SVG 1.1//EN" "http://www.w3.org/Graphics/SVG/1.1/DTD/svg11.dtd"><svg t="1717775529405" class="icon" viewBox="0 0 1024 1024" version="1.1" xmlns="http://www.w3.org/2000/svg" p-id="2591" xmlns:xlink="http://www.w3.org/1999/xlink" width="200" height="200"><path d="M210.261333 698.709333a19.797333 19.797333 0 0 1-19.797333-19.882666V457.045333c0-22.784 11.093333-44.117333 29.781333-57.258666L459.349333 231.253333a19.797333 19.797333 0 1 1 22.869334 32.426667L243.2 432.213333a30.549333 30.549333 0 0 0-12.970667 24.832v221.866667a19.797333 19.797333 0 0 1-19.882666 19.712z" fill="#FFFFFF" p-id="2592"></path><path d="M515.498667 112.042667c9.813333 0 19.285333 3.072 27.306666 8.618666l361.216 254.464c12.458667 8.789333 19.797333 23.04 19.797334 38.144v474.88H705.536a7.936 7.936 0 0 1-8.021333-7.850666v-57.344a105.813333 105.813333 0 0 0-105.984-105.813334H439.552c-58.453333 0-105.898667 47.530667-105.898667 105.813334v57.344c0 4.266667-3.669333 7.850667-8.106666 7.850666h-218.453334V413.269333c0-15.104 7.509333-29.354667 19.882667-38.144l361.216-254.464a47.701333 47.701333 0 0 1 27.306667-8.533333z m0-58.282667c-21.333333 0-42.666667 6.4-60.928 19.2L93.525333 327.424a104.96 104.96 0 0 0-44.544 85.845333v485.802667c0 26.197333 21.333333 47.36 47.530667 47.36h229.205333c36.608 0 66.389333-29.610667 66.389334-66.133333v-57.344c0-26.197333 21.333333-47.445333 47.530666-47.445334h152.064c26.197333 0 47.616 21.333333 47.616 47.445334v57.344c0 36.522667 29.696 66.133333 66.389334 66.133333h229.12a47.530667 47.530667 0 0 0 47.530666-47.36V413.269333c0-34.133333-16.554667-66.133333-44.544-85.845333L576.512 72.96A106.24 106.24 0 0 0 515.498667 53.76z" fill="#FFFFFF" p-id="2593"></path></svg>